<svg id="Circle_Button_" data-name="Circle Button " xmlns="http://www.w3.org/2000/svg" width="28" height="29" viewBox="0 0 28 29">
  <g id="Icon_" data-name="Icon " transform="translate(0 0)">
    <rect id="Area_ICON:feather_twitter_SIZE:MEDIUM_STATE:DEFAULT_STYLE:STYLE3_" data-name="Area [ICON:feather/twitter][SIZE:MEDIUM][STATE:DEFAULT][STYLE:STYLE3]" width="28" height="29" fill="#414141" opacity="0"/>
    <g id="Icon" transform="translate(0.049 4.688)">
      <path id="Path" d="M26.243,2.5A12.6,12.6,0,0,1,22.616,4.27a5.174,5.174,0,0,0-9.078,3.465V8.89A12.313,12.313,0,0,1,3.143,3.658S-1.476,14.053,8.919,18.673A13.442,13.442,0,0,1,.833,20.983c10.395,5.775,23.1,0,23.1-13.282a5.182,5.182,0,0,0-.093-.959A8.907,8.907,0,0,0,26.243,2.5Z" transform="translate(-0.833 -2.491)" fill="#414141"/>
    </g>
  </g>
</svg>
