<svg xmlns="http://www.w3.org/2000/svg" width="72.645" height="97.599" viewBox="0 0 72.645 97.599">
  <g id="Group_18641" data-name="Group 18641" transform="translate(-713.001 -139.44)">
    <g id="Group_18610" data-name="Group 18610" transform="translate(714.131 139)">
      <ellipse id="Ellipse_150" data-name="Ellipse 150" cx="35.5" cy="35" rx="35.5" ry="35" transform="translate(-0.132 0.44)" fill="none"/>
      <path id="Ellipse_150_-_Outline" data-name="Ellipse 150 - Outline" d="M35.5.8A34.844,34.844,0,0,0,10.959,10.821,34.064,34.064,0,0,0,3.525,21.692a33.86,33.86,0,0,0,0,26.616,34.064,34.064,0,0,0,7.434,10.871A35.134,35.134,0,0,0,49.01,66.511a34.618,34.618,0,0,0,11.03-7.332,34.064,34.064,0,0,0,7.434-10.871,33.86,33.86,0,0,0,0-26.616,34.064,34.064,0,0,0-7.434-10.871A34.844,34.844,0,0,0,35.5.8m0-.8C55.106,0,71,15.67,71,35S55.106,70,35.5,70,0,54.33,0,35,15.894,0,35.5,0Z" transform="translate(-0.132 0.44)" fill="#414141"/>
      <path id="Label_-_Outline" data-name="Label - Outline" d="M-.284-27.8H4.509L10.516-7.272,17.187-27.8h3.921L27.965-7.268,33.826-27.8H38.1L29.938.5H26.162L19.037-20.393,12.06.5H8.287Zm20.672,1h0Z" transform="translate(16.868 51.439)" fill="#414141"/>
    </g>
    <path id="Path_54555" data-name="Path 54555" d="M5.04.15A4.307,4.307,0,0,1,1.853-.93,3.988,3.988,0,0,1,.78-3.87a7.843,7.843,0,0,1,.465-2.723A6.87,6.87,0,0,1,2.565-8.82a6.072,6.072,0,0,1,2.04-1.5,6.257,6.257,0,0,1,2.625-.54,4.661,4.661,0,0,1,2.377.48A1.36,1.36,0,0,1,10.4-9.24a.982.982,0,0,1-.472.885,2.04,2.04,0,0,1-1.118.3A2.245,2.245,0,0,0,8.355-9.5a1.735,1.735,0,0,0-1.44-.563,3.226,3.226,0,0,0-1.778.525A5.042,5.042,0,0,0,3.705-8.115,7.185,7.185,0,0,0,2.753-6.06a8.621,8.621,0,0,0-.337,2.43,3.225,3.225,0,0,0,.667,2.108A2.721,2.721,0,0,0,5.31-.705,6.926,6.926,0,0,0,6.2-.765a6.583,6.583,0,0,0,.81-.15L7.5-3.3a1.763,1.763,0,0,0,.06-.42.462.462,0,0,0-.322-.495A2.453,2.453,0,0,0,6.48-4.32H6.345l.135-.63h3.99l-.135.63h-.06a1.619,1.619,0,0,0-.773.188A1.24,1.24,0,0,0,9-3.24L8.43-.54A9.27,9.27,0,0,1,6.8-.023,8.4,8.4,0,0,1,5.04.15Zm12.51,0a1.115,1.115,0,0,1-.93-.42,1.577,1.577,0,0,1-.33-1q0-.165.022-.405t.052-.48h-.12a11.809,11.809,0,0,1-.825,1.2,3.3,3.3,0,0,1-.9.8,2.258,2.258,0,0,1-1.17.293,1.428,1.428,0,0,1-1.245-.5,1.945,1.945,0,0,1-.36-1.163,4.122,4.122,0,0,1,.09-.817q.09-.442.18-.833L12.6-5.805q.045-.21.09-.517a3.837,3.837,0,0,0,.045-.383.554.554,0,0,0-.308-.578,1.937,1.937,0,0,0-.742-.127h-.12l.135-.63h2.79L13.5-3.555q-.09.405-.195.945a4.788,4.788,0,0,0-.1.87,1.309,1.309,0,0,0,.15.645.609.609,0,0,0,.585.27,1.464,1.464,0,0,0,.84-.308,4.147,4.147,0,0,0,.84-.818,6.106,6.106,0,0,0,.7-1.125,5.488,5.488,0,0,0,.435-1.23l.78-3.735H18.99L17.955-3.225q-.045.165-.1.48t-.09.645a4.975,4.975,0,0,0-.038.54q0,.765.5.765a1.262,1.262,0,0,0,.465-.082,3.776,3.776,0,0,0,.5-.247l.27.435a4.164,4.164,0,0,1-.832.57A2.232,2.232,0,0,1,17.55.15Zm5.46,0a3.1,3.1,0,0,1-1.028-.165,2.39,2.39,0,0,1-.728-.375L20.58.045H20.1L22.08-9.27a5.187,5.187,0,0,0,.1-.51,2.467,2.467,0,0,0,.03-.285.552.552,0,0,0-.315-.577,1.95,1.95,0,0,0-.735-.128h-.12l.135-.63h2.835L23.3-8.025q-.06.285-.165.668t-.21.743q-.1.36-.165.57h.075A5.429,5.429,0,0,1,24-7.62a2.294,2.294,0,0,1,1.575-.57,1.641,1.641,0,0,1,1.395.69,3.379,3.379,0,0,1,.51,2.025,6.487,6.487,0,0,1-.3,1.9,6.712,6.712,0,0,1-.878,1.83,4.784,4.784,0,0,1-1.41,1.373A3.455,3.455,0,0,1,23.01.15Zm-.06-.675A1.806,1.806,0,0,0,24.03-.87a3.233,3.233,0,0,0,.84-.915,6.3,6.3,0,0,0,.6-1.238,8.447,8.447,0,0,0,.36-1.312,6.384,6.384,0,0,0,.12-1.155,2.468,2.468,0,0,0-.278-1.358.8.8,0,0,0-.668-.4,1.4,1.4,0,0,0-.93.375,4.07,4.07,0,0,0-.78.923,8.4,8.4,0,0,0-.577,1.072,4.141,4.141,0,0,0-.293.84l-.645,2.97a1.48,1.48,0,0,0,.495.39A1.488,1.488,0,0,0,22.95-.525ZM31.695.15A3.125,3.125,0,0,1,30.225-.2a2.61,2.61,0,0,1-1.058-1.027,3.4,3.4,0,0,1-.4-1.733,5.853,5.853,0,0,1,.285-1.74,5.961,5.961,0,0,1,.855-1.71,4.606,4.606,0,0,1,1.4-1.29,3.7,3.7,0,0,1,1.928-.5,2.166,2.166,0,0,1,1.47.458,1.593,1.593,0,0,1,.525,1.267,2.278,2.278,0,0,1-.562,1.477,3.984,3.984,0,0,1-1.545,1.1,5.658,5.658,0,0,1-2.243.42H30.36q-.015.165-.023.322t-.007.308a2.383,2.383,0,0,0,.42,1.508A1.472,1.472,0,0,0,31.98-.8a2.4,2.4,0,0,0,1.283-.345,3.4,3.4,0,0,0,.877-.735.427.427,0,0,1,.15.375,1.239,1.239,0,0,1-.278.712,2.217,2.217,0,0,1-.847.66A3.366,3.366,0,0,1,31.695.15ZM30.5-4.155h.15a3.962,3.962,0,0,0,1.56-.293,2.63,2.63,0,0,0,1.087-.81,1.926,1.926,0,0,0,.4-1.207q0-1-.87-1.005a1.261,1.261,0,0,0-.8.293,2.974,2.974,0,0,0-.668.78,6.089,6.089,0,0,0-.517,1.073A7.925,7.925,0,0,0,30.5-4.155ZM36.18,0l1.26-6.03q.045-.21.067-.405t.022-.27a.545.545,0,0,0-.39-.578,2.59,2.59,0,0,0-.81-.127h-.12l.135-.63H39l-.315,2.16h.15a10.194,10.194,0,0,1,.615-1.14,2.877,2.877,0,0,1,.8-.847,1.951,1.951,0,0,1,1.14-.323,1.289,1.289,0,0,1,.93.293.993.993,0,0,1,.3.743,1.158,1.158,0,0,1-.292.832,1.267,1.267,0,0,1-.952.307,2.534,2.534,0,0,0-.12-.863.467.467,0,0,0-.48-.322,1.132,1.132,0,0,0-.787.405,4.572,4.572,0,0,0-.75,1.073A11.478,11.478,0,0,0,38.6-4.267a12.271,12.271,0,0,0-.45,1.537L37.575,0Zm8.805,3.6a4.766,4.766,0,0,1-2.452-.5,1.6,1.6,0,0,1-.818-1.447A1.637,1.637,0,0,1,42.068.585a2.624,2.624,0,0,1,.908-.705A4.71,4.71,0,0,1,44.16-.51a1.332,1.332,0,0,1-.51-.405,1,1,0,0,1-.21-.63,1.11,1.11,0,0,1,.315-.8,4.283,4.283,0,0,1,1.11-.735,1.723,1.723,0,0,1-.772-.675,2.047,2.047,0,0,1-.278-1.1,3.288,3.288,0,0,1,.21-1.11,3.584,3.584,0,0,1,.638-1.095,3.184,3.184,0,0,1,1.087-.825A3.551,3.551,0,0,1,47.3-8.19a2.918,2.918,0,0,1,.847.12,2.053,2.053,0,0,1,.7.36,3.358,3.358,0,0,1,.7-.75,1.452,1.452,0,0,1,.915-.315.746.746,0,0,1,.563.2.685.685,0,0,1,.188.495,1.171,1.171,0,0,1-.187.63.757.757,0,0,1-.7.3.674.674,0,0,0-.105-.382.353.353,0,0,0-.315-.158.76.76,0,0,0-.4.112,3.059,3.059,0,0,0-.338.233A1.945,1.945,0,0,1,49.5-6.2a3.293,3.293,0,0,1-.2,1.087,3.652,3.652,0,0,1-.622,1.1,3.242,3.242,0,0,1-1.073.848,3.367,3.367,0,0,1-1.537.33q-.12,0-.248-.007t-.232-.023a5.391,5.391,0,0,0-.705.375.66.66,0,0,0-.36.57.329.329,0,0,0,.218.33,1.9,1.9,0,0,0,.548.12l1.44.15a3.351,3.351,0,0,1,1.717.593A1.634,1.634,0,0,1,49.05.645,2.6,2.6,0,0,1,48.03,2.8,4.865,4.865,0,0,1,44.985,3.6ZM46.23-3.555a1.383,1.383,0,0,0,.87-.277,2.208,2.208,0,0,0,.592-.705,3.452,3.452,0,0,0,.338-.892,3.849,3.849,0,0,0,.1-.84,1.33,1.33,0,0,0-.278-.937A.994.994,0,0,0,47.1-7.5a1.383,1.383,0,0,0-.87.277,2.208,2.208,0,0,0-.593.705,3.452,3.452,0,0,0-.337.892,3.849,3.849,0,0,0-.1.84,1.33,1.33,0,0,0,.278.937A.994.994,0,0,0,46.23-3.555Zm-1.185,6.42a4.192,4.192,0,0,0,1.575-.248,1.787,1.787,0,0,0,.862-.66,1.631,1.631,0,0,0,.263-.893.937.937,0,0,0-.33-.758A1.971,1.971,0,0,0,46.35-.045L44.9-.18a3.25,3.25,0,0,0-.96.263,1.837,1.837,0,0,0-.728.57,1.463,1.463,0,0,0-.278.908,1.151,1.151,0,0,0,.458.937A2.744,2.744,0,0,0,45.045,2.865ZM51.24,0,52.5-6.03q.045-.21.068-.405t.022-.27a.545.545,0,0,0-.39-.578,2.59,2.59,0,0,0-.81-.127h-.12l.135-.63H54.06l-.315,2.16h.15a10.194,10.194,0,0,1,.615-1.14,2.877,2.877,0,0,1,.795-.847,1.951,1.951,0,0,1,1.14-.323,1.289,1.289,0,0,1,.93.293.993.993,0,0,1,.3.743,1.158,1.158,0,0,1-.292.832,1.267,1.267,0,0,1-.953.307,2.534,2.534,0,0,0-.12-.863.467.467,0,0,0-.48-.322,1.132,1.132,0,0,0-.787.405,4.572,4.572,0,0,0-.75,1.073,11.478,11.478,0,0,0-.638,1.455,12.271,12.271,0,0,0-.45,1.537L52.635,0Zm9.63.15A3.125,3.125,0,0,1,59.4-.2a2.61,2.61,0,0,1-1.057-1.027,3.4,3.4,0,0,1-.4-1.733A5.853,5.853,0,0,1,58.23-4.7a5.961,5.961,0,0,1,.855-1.71,4.606,4.606,0,0,1,1.4-1.29,3.7,3.7,0,0,1,1.928-.5,2.166,2.166,0,0,1,1.47.458,1.593,1.593,0,0,1,.525,1.267,2.278,2.278,0,0,1-.562,1.477,3.984,3.984,0,0,1-1.545,1.1,5.658,5.658,0,0,1-2.243.42h-.525q-.015.165-.022.322t-.007.308a2.383,2.383,0,0,0,.42,1.508,1.472,1.472,0,0,0,1.23.532,2.4,2.4,0,0,0,1.283-.345,3.4,3.4,0,0,0,.877-.735.427.427,0,0,1,.15.375,1.239,1.239,0,0,1-.278.712,2.217,2.217,0,0,1-.847.66A3.366,3.366,0,0,1,60.87.15Zm-1.2-4.305h.15a3.962,3.962,0,0,0,1.56-.293,2.63,2.63,0,0,0,1.087-.81,1.926,1.926,0,0,0,.4-1.207q0-1-.87-1.005a1.261,1.261,0,0,0-.8.293,2.974,2.974,0,0,0-.668.78,6.089,6.089,0,0,0-.517,1.073A7.925,7.925,0,0,0,59.67-4.155ZM71.6.15a1.248,1.248,0,0,1-1.013-.42,1.623,1.623,0,0,1-.352-1.08,10.6,10.6,0,0,1,.285-2.025l.255-1.17.12-.517q.075-.323.135-.66a3.5,3.5,0,0,0,.06-.608,1.47,1.47,0,0,0-.128-.592.546.546,0,0,0-.562-.293,1.543,1.543,0,0,0-.937.345,4.254,4.254,0,0,0-.855.885,6.994,6.994,0,0,0-.675,1.117A4.442,4.442,0,0,0,67.56-3.84L66.75,0H65.355l1.26-6.03q.045-.21.068-.405t.022-.27a.552.552,0,0,0-.315-.578,1.95,1.95,0,0,0-.735-.127h-.12l.135-.63h2.775l-.4,1.89h.15a6.009,6.009,0,0,1,1.252-1.507,2.276,2.276,0,0,1,1.478-.517,1.428,1.428,0,0,1,1.245.5,1.945,1.945,0,0,1,.36,1.162,3.818,3.818,0,0,1-.1.817q-.1.443-.173.833l-.39,1.77q-.09.42-.142.825a5.861,5.861,0,0,0-.053.75q0,.72.525.72a1.789,1.789,0,0,0,.96-.345l.27.435a7.357,7.357,0,0,1-.8.578A1.893,1.893,0,0,1,71.6.15Z" transform="translate(712.221 233.439)" fill="#414141"/>
  </g>
</svg>
